<svg xmlns="http://www.w3.org/2000/svg" xmlns:xlink="http://www.w3.org/1999/xlink" width="980" height="537.62"><rect width="980" height="537.62" rx="5" ry="5" class="a"/><svg y="0%" x="0%"><circle cx="20" cy="20" r="6" fill="#ff5f58"/><circle cx="40" cy="20" r="6" fill="#ffbd2e"/><circle cx="60" cy="20" r="6" fill="#18c132"/></svg><svg height="477.62" viewBox="0 0 94 47.762" width="940" x="15" xmlns="http://www.w3.org/2000/svg" xmlns:xlink="http://www.w3.org/1999/xlink" y="50"><style>@keyframes i{0%{transform:translateX(0)}4.1%{transform:translateX(-94px)}4.6%{transform:translateX(-376px)}9.3%{transform:translateX(-470px)}10.5%{transform:translateX(-564px)}11.4%{transform:translateX(-658px)}11.9%{transform:translateX(-752px)}13.2%{transform:translateX(-846px)}14.2%{transform:translateX(-940px)}20%{transform:translateX(-1222px)}20.7%{transform:translateX(-1316px)}20.8%{transform:translateX(-1410px)}31.2%{transform:translateX(-1504px)}31.7%{transform:translateX(-1598px)}32.3%{transform:translateX(-1692px)}32.9%{transform:translateX(-1786px)}33.9%{transform:translateX(-1880px)}35.4%{transform:translateX(-1974px)}36.3%{transform:translateX(-2068px)}37.8%{transform:translateX(-2162px)}39%{transform:translateX(-2256px)}39.8%{transform:translateX(-2350px)}41.9%{transform:translateX(-2538px)}44.3%{transform:translateX(-2632px)}45.1%{transform:translateX(-2726px)}45.8%{transform:translateX(-2820px)}46.3%{transform:translateX(-2914px)}46.9%{transform:translateX(-3008px)}48.5%{transform:translateX(-3102px)}49.8%{transform:translateX(-3196px)}51.7%{transform:translateX(-3290px)}55.8%{transform:translateX(-3384px)}56.7%{transform:translateX(-3478px)}57.5%{transform:translateX(-3572px)}58.8%{transform:translateX(-3666px)}60%{transform:translateX(-3760px)}61.5%{transform:translateX(-3854px)}62%{transform:translateX(-3948px)}62.7%{transform:translateX(-4042px)}63.3%{transform:translateX(-4136px)}64.1%{transform:translateX(-4230px)}65.8%{transform:translateX(-4324px)}67.6%{transform:translateX(-4418px)}70.8%{transform:translateX(-4700px)}72.8%{transform:translateX(-4794px)}73.7%{transform:translateX(-4888px)}74.6%{transform:translateX(-4982px)}75.6%{transform:translateX(-5076px)}77%{transform:translateX(-5170px)}78.1%{transform:translateX(-5264px)}79.2%{transform:translateX(-5358px)}79.9%{transform:translateX(-5452px)}81.5%{transform:translateX(-5546px)}82.2%{transform:translateX(-5640px)}85.3%{transform:translateX(-5828px)}85.9%{transform:translateX(-6110px)}to{transform:translateX(-6298px)}}.a{fill:#282d35}.f{fill:#b9c0cb;white-space:pre}</style><g font-family="Monaco,Consolas,Menlo,'Bitstream Vera Sans Mono','Powerline Symbols',monospace" font-size="1.67"><defs><symbol id="1"><text y="1.67" class="f">&gt;</text></symbol><symbol id="2"><text y="1.67" class="f">&gt;</text><text x="2.004" y="1.67" class="f">python</text></symbol><symbol id="3"><text y="1.67" class="f">Python</text><text x="7.014" y="1.67" class="f">3.10.0</text><text x="14.028" y="1.67" class="f">(default,</text><text x="24.048" y="1.67" class="f">Dec</text><text x="28.056" y="1.67" class="f">13</text><text x="31.062" y="1.67" class="f">2021,</text><text x="37.074" y="1.67" class="f">10:30:51)</text><text x="47.094" y="1.67" class="f">[Clang</text><text x="54.108" y="1.67" class="f">13.0.0</text><text x="61.122" y="1.67" class="f">(clang-1300.0.29.3)]</text><text x="82.164" y="1.67" class="f">on</text><text x="85.17" y="1.67" class="f">darwin</text></symbol><symbol id="4"><text y="1.67" class="f">Type</text><text x="5.01" y="1.67" class="f">&quot;help&quot;,</text><text x="13.026" y="1.67" class="f">&quot;copyright&quot;,</text><text x="26.052" y="1.67" class="f">&quot;credits&quot;</text><text x="36.072" y="1.67" class="f">or</text><text x="39.078" y="1.67" class="f">&quot;license&quot;</text><text x="49.098" y="1.67" class="f">for</text><text x="53.106" y="1.67" class="f">more</text><text x="58.116" y="1.67" class="f">information.</text></symbol><symbol id="5"><text y="1.67" class="f">&gt;&gt;&gt;</text></symbol><symbol id="6"><text y="1.67" class="f">&gt;&gt;&gt;</text><text x="4.008" y="1.67" class="f">import</text></symbol><symbol id="7"><text y="1.67" class="f">&gt;&gt;&gt;</text><text x="4.008" y="1.67" class="f">import</text><text x="11.022" y="1.67" class="f">sys</text></symbol><symbol id="8"><text y="1.67" class="f">&gt;&gt;&gt;</text><text x="4.008" y="1.67" class="f">print(&quot;Hello</text></symbol><symbol id="9"><text y="1.67" class="f">&gt;&gt;&gt;</text><text x="4.008" y="1.67" class="f">print(&quot;Hello</text><text x="17.034" y="1.67" class="f">world&quot;)</text></symbol><symbol id="10"><text y="1.67" class="f">Hello</text><text x="6.012" y="1.67" class="f">world</text></symbol><symbol id="11"><text y="1.67" class="f">&gt;&gt;&gt;</text><text x="4.008" y="1.67" class="f">sys.exit()</text></symbol><symbol id="a"><path fill="transparent" d="M0 0h94v22H0z"/></symbol><symbol id="b"><path fill="#6f7683" d="M0 0h1.102v2.171H0z"/></symbol></defs><path class="a" d="M0 0h94v47.762H0z"/><g style="animation-duration:15.657812s;animation-iteration-count:infinite;animation-name:i;animation-timing-function:steps(1,end)"><svg width="6392"><svg><use xlink:href="#a"/><use xlink:href="#b" x="-.004"/></svg><svg x="94"><use xlink:href="#a"/><use xlink:href="#b" x="-.004"/></svg><svg x="188"><use xlink:href="#a"/><use xlink:href="#b" x="-.004"/></svg><svg x="282"><use xlink:href="#a"/><use xlink:href="#b" x="1.996"/><use xlink:href="#1"/></svg><svg x="376"><use xlink:href="#a"/><use xlink:href="#b" x="1.996"/><use xlink:href="#1"/></svg><svg x="470"><use xlink:href="#a"/><use xlink:href="#b" x="2.996"/><text y="1.67" class="f">&gt;</text><text x="2.004" y="1.67" class="f">p</text></svg><svg x="564"><use xlink:href="#a"/><use xlink:href="#b" x="3.996"/><text y="1.67" class="f">&gt;</text><text x="2.004" y="1.67" class="f">py</text></svg><svg x="658"><use xlink:href="#a"/><use xlink:href="#b" x="4.996"/><text y="1.67" class="f">&gt;</text><text x="2.004" y="1.67" class="f">pyt</text></svg><svg x="752"><use xlink:href="#a"/><use xlink:href="#b" x="5.996"/><text y="1.67" class="f">&gt;</text><text x="2.004" y="1.67" class="f">pyth</text></svg><svg x="846"><use xlink:href="#a"/><use xlink:href="#b" x="6.996"/><text y="1.67" class="f">&gt;</text><text x="2.004" y="1.67" class="f">pytho</text></svg><svg x="940"><use xlink:href="#a"/><use xlink:href="#b" x="7.996"/><use xlink:href="#2"/></svg><svg x="1034"><use xlink:href="#a"/><use xlink:href="#b" x="7.996"/><use xlink:href="#2"/></svg><svg x="1128"><use xlink:href="#a"/><use xlink:href="#b" x="-.004" y="2.146"/><use xlink:href="#2"/></svg><svg x="1222"><use xlink:href="#a"/><use xlink:href="#b" x="-.004" y="2.146"/><use xlink:href="#2"/></svg><svg x="1316"><use xlink:href="#a"/><use xlink:href="#b" x="-.004" y="6.488"/><use xlink:href="#2"/><use xlink:href="#3" y="2.171"/><use xlink:href="#4" y="4.342"/></svg><svg x="1410"><use xlink:href="#a"/><use xlink:href="#b" x="3.996" y="6.488"/><use xlink:href="#2"/><use xlink:href="#3" y="2.171"/><use xlink:href="#4" y="4.342"/><use xlink:href="#5" y="6.513"/></svg><svg x="1504"><use xlink:href="#a"/><use xlink:href="#b" x="4.996" y="6.488"/><use xlink:href="#2"/><use xlink:href="#3" y="2.171"/><use xlink:href="#4" y="4.342"/><text y="8.183" class="f">&gt;&gt;&gt;</text><text x="4.008" y="8.183" class="f">i</text></svg><svg x="1598"><use xlink:href="#a"/><use xlink:href="#b" x="5.996" y="6.488"/><use xlink:href="#2"/><use xlink:href="#3" y="2.171"/><use xlink:href="#4" y="4.342"/><text y="8.183" class="f">&gt;&gt;&gt;</text><text x="4.008" y="8.183" class="f">im</text></svg><svg x="1692"><use xlink:href="#a"/><use xlink:href="#b" x="6.996" y="6.488"/><use xlink:href="#2"/><use xlink:href="#3" y="2.171"/><use xlink:href="#4" y="4.342"/><text y="8.183" class="f">&gt;&gt;&gt;</text><text x="4.008" y="8.183" class="f">imp</text></svg><svg x="1786"><use xlink:href="#a"/><use xlink:href="#b" x="7.996" y="6.488"/><use xlink:href="#2"/><use xlink:href="#3" y="2.171"/><use xlink:href="#4" y="4.342"/><text y="8.183" class="f">&gt;&gt;&gt;</text><text x="4.008" y="8.183" class="f">impo</text></svg><svg x="1880"><use xlink:href="#a"/><use xlink:href="#b" x="8.996" y="6.488"/><use xlink:href="#2"/><use xlink:href="#3" y="2.171"/><use xlink:href="#4" y="4.342"/><text y="8.183" class="f">&gt;&gt;&gt;</text><text x="4.008" y="8.183" class="f">impor</text></svg><svg x="1974"><use xlink:href="#a"/><use xlink:href="#b" x="9.996" y="6.488"/><use xlink:href="#2"/><use xlink:href="#3" y="2.171"/><use xlink:href="#4" y="4.342"/><use xlink:href="#6" y="6.513"/></svg><svg x="2068"><use xlink:href="#a"/><use xlink:href="#b" x="10.996" y="6.488"/><use xlink:href="#2"/><use xlink:href="#3" y="2.171"/><use xlink:href="#4" y="4.342"/><use xlink:href="#6" y="6.513"/></svg><svg x="2162"><use xlink:href="#a"/><use xlink:href="#b" x="11.996" y="6.488"/><use xlink:href="#2"/><use xlink:href="#3" y="2.171"/><use xlink:href="#4" y="4.342"/><text y="8.183" class="f">&gt;&gt;&gt;</text><text x="4.008" y="8.183" class="f">import</text><text x="11.022" y="8.183" class="f">s</text></svg><svg x="2256"><use xlink:href="#a"/><use xlink:href="#b" x="12.996" y="6.488"/><use xlink:href="#2"/><use xlink:href="#3" y="2.171"/><use xlink:href="#4" y="4.342"/><text y="8.183" class="f">&gt;&gt;&gt;</text><text x="4.008" y="8.183" class="f">import</text><text x="11.022" y="8.183" class="f">sy</text></svg><svg x="2350"><use xlink:href="#a"/><use xlink:href="#b" x="13.996" y="6.488"/><use xlink:href="#2"/><use xlink:href="#3" y="2.171"/><use xlink:href="#4" y="4.342"/><use xlink:href="#7" y="6.513"/></svg><svg x="2444"><use xlink:href="#a"/><use xlink:href="#b" x="-.004" y="8.659"/><use xlink:href="#2"/><use xlink:href="#3" y="2.171"/><use xlink:href="#4" y="4.342"/><use xlink:href="#7" y="6.513"/></svg><svg x="2538"><use xlink:href="#a"/><use xlink:href="#b" x="3.996" y="8.659"/><use xlink:href="#2"/><use xlink:href="#3" y="2.171"/><use xlink:href="#4" y="4.342"/><use xlink:href="#7" y="6.513"/><use xlink:href="#5" y="8.684"/></svg><svg x="2632"><use xlink:href="#a"/><use xlink:href="#b" x="4.996" y="8.659"/><use xlink:href="#2"/><use xlink:href="#3" y="2.171"/><use xlink:href="#4" y="4.342"/><use xlink:href="#7" y="6.513"/><text y="10.354" class="f">&gt;&gt;&gt;</text><text x="4.008" y="10.354" class="f">p</text></svg><svg x="2726"><use xlink:href="#a"/><use xlink:href="#b" x="5.996" y="8.659"/><use xlink:href="#2"/><use xlink:href="#3" y="2.171"/><use xlink:href="#4" y="4.342"/><use xlink:href="#7" y="6.513"/><text y="10.354" class="f">&gt;&gt;&gt;</text><text x="4.008" y="10.354" class="f">pr</text></svg><svg x="2820"><use xlink:href="#a"/><use xlink:href="#b" x="6.996" y="8.659"/><use xlink:href="#2"/><use xlink:href="#3" y="2.171"/><use xlink:href="#4" y="4.342"/><use xlink:href="#7" y="6.513"/><text y="10.354" class="f">&gt;&gt;&gt;</text><text x="4.008" y="10.354" class="f">pri</text></svg><svg x="2914"><use xlink:href="#a"/><use xlink:href="#b" x="7.996" y="8.659"/><use xlink:href="#2"/><use xlink:href="#3" y="2.171"/><use xlink:href="#4" y="4.342"/><use xlink:href="#7" y="6.513"/><text y="10.354" class="f">&gt;&gt;&gt;</text><text x="4.008" y="10.354" class="f">prin</text></svg><svg x="3008"><use xlink:href="#a"/><use xlink:href="#b" x="8.996" y="8.659"/><use xlink:href="#2"/><use xlink:href="#3" y="2.171"/><use xlink:href="#4" y="4.342"/><use xlink:href="#7" y="6.513"/><text y="10.354" class="f">&gt;&gt;&gt;</text><text x="4.008" y="10.354" class="f">print</text></svg><svg x="3102"><use xlink:href="#a"/><use xlink:href="#b" x="9.996" y="8.659"/><use xlink:href="#2"/><use xlink:href="#3" y="2.171"/><use xlink:href="#4" y="4.342"/><use xlink:href="#7" y="6.513"/><text y="10.354" class="f">&gt;&gt;&gt;</text><text x="4.008" y="10.354" class="f">print(</text></svg><svg x="3196"><use xlink:href="#a"/><use xlink:href="#b" x="10.996" y="8.659"/><use xlink:href="#2"/><use xlink:href="#3" y="2.171"/><use xlink:href="#4" y="4.342"/><use xlink:href="#7" y="6.513"/><text y="10.354" class="f">&gt;&gt;&gt;</text><text x="4.008" y="10.354" class="f">print(&quot;</text></svg><svg x="3290"><use xlink:href="#a"/><use xlink:href="#b" x="11.996" y="8.659"/><use xlink:href="#2"/><use xlink:href="#3" y="2.171"/><use xlink:href="#4" y="4.342"/><use xlink:href="#7" y="6.513"/><text y="10.354" class="f">&gt;&gt;&gt;</text><text x="4.008" y="10.354" class="f">print(&quot;H</text></svg><svg x="3384"><use xlink:href="#a"/><use xlink:href="#b" x="12.996" y="8.659"/><use xlink:href="#2"/><use xlink:href="#3" y="2.171"/><use xlink:href="#4" y="4.342"/><use xlink:href="#7" y="6.513"/><text y="10.354" class="f">&gt;&gt;&gt;</text><text x="4.008" y="10.354" class="f">print(&quot;He</text></svg><svg x="3478"><use xlink:href="#a"/><use xlink:href="#b" x="13.996" y="8.659"/><use xlink:href="#2"/><use xlink:href="#3" y="2.171"/><use xlink:href="#4" y="4.342"/><use xlink:href="#7" y="6.513"/><text y="10.354" class="f">&gt;&gt;&gt;</text><text x="4.008" y="10.354" class="f">print(&quot;Hel</text></svg><svg x="3572"><use xlink:href="#a"/><use xlink:href="#b" x="14.996" y="8.659"/><use xlink:href="#2"/><use xlink:href="#3" y="2.171"/><use xlink:href="#4" y="4.342"/><use xlink:href="#7" y="6.513"/><text y="10.354" class="f">&gt;&gt;&gt;</text><text x="4.008" y="10.354" class="f">print(&quot;Hell</text></svg><svg x="3666"><use xlink:href="#a"/><use xlink:href="#b" x="15.996" y="8.659"/><use xlink:href="#2"/><use xlink:href="#3" y="2.171"/><use xlink:href="#4" y="4.342"/><use xlink:href="#7" y="6.513"/><use xlink:href="#8" y="8.684"/></svg><svg x="3760"><use xlink:href="#a"/><use xlink:href="#b" x="16.996" y="8.659"/><use xlink:href="#2"/><use xlink:href="#3" y="2.171"/><use xlink:href="#4" y="4.342"/><use xlink:href="#7" y="6.513"/><use xlink:href="#8" y="8.684"/></svg><svg x="3854"><use xlink:href="#a"/><use xlink:href="#b" x="17.996" y="8.659"/><use xlink:href="#2"/><use xlink:href="#3" y="2.171"/><use xlink:href="#4" y="4.342"/><use xlink:href="#7" y="6.513"/><text y="10.354" class="f">&gt;&gt;&gt;</text><text x="4.008" y="10.354" class="f">print(&quot;Hello</text><text x="17.034" y="10.354" class="f">w</text></svg><svg x="3948"><use xlink:href="#a"/><use xlink:href="#b" x="18.996" y="8.659"/><use xlink:href="#2"/><use xlink:href="#3" y="2.171"/><use xlink:href="#4" y="4.342"/><use xlink:href="#7" y="6.513"/><text y="10.354" class="f">&gt;&gt;&gt;</text><text x="4.008" y="10.354" class="f">print(&quot;Hello</text><text x="17.034" y="10.354" class="f">wo</text></svg><svg x="4042"><use xlink:href="#a"/><use xlink:href="#b" x="19.996" y="8.659"/><use xlink:href="#2"/><use xlink:href="#3" y="2.171"/><use xlink:href="#4" y="4.342"/><use xlink:href="#7" y="6.513"/><text y="10.354" class="f">&gt;&gt;&gt;</text><text x="4.008" y="10.354" class="f">print(&quot;Hello</text><text x="17.034" y="10.354" class="f">wor</text></svg><svg x="4136"><use xlink:href="#a"/><use xlink:href="#b" x="20.996" y="8.659"/><use xlink:href="#2"/><use xlink:href="#3" y="2.171"/><use xlink:href="#4" y="4.342"/><use xlink:href="#7" y="6.513"/><text y="10.354" class="f">&gt;&gt;&gt;</text><text x="4.008" y="10.354" class="f">print(&quot;Hello</text><text x="17.034" y="10.354" class="f">worl</text></svg><svg x="4230"><use xlink:href="#a"/><use xlink:href="#b" x="21.996" y="8.659"/><use xlink:href="#2"/><use xlink:href="#3" y="2.171"/><use xlink:href="#4" y="4.342"/><use xlink:href="#7" y="6.513"/><text y="10.354" class="f">&gt;&gt;&gt;</text><text x="4.008" y="10.354" class="f">print(&quot;Hello</text><text x="17.034" y="10.354" class="f">world</text></svg><svg x="4324"><use xlink:href="#a"/><use xlink:href="#b" x="22.996" y="8.659"/><use xlink:href="#2"/><use xlink:href="#3" y="2.171"/><use xlink:href="#4" y="4.342"/><use xlink:href="#7" y="6.513"/><text y="10.354" class="f">&gt;&gt;&gt;</text><text x="4.008" y="10.354" class="f">print(&quot;Hello</text><text x="17.034" y="10.354" class="f">world&quot;</text></svg><svg x="4418"><use xlink:href="#a"/><use xlink:href="#b" x="23.996" y="8.659"/><use xlink:href="#2"/><use xlink:href="#3" y="2.171"/><use xlink:href="#4" y="4.342"/><use xlink:href="#7" y="6.513"/><use xlink:href="#9" y="8.684"/></svg><svg x="4512"><use xlink:href="#a"/><use xlink:href="#b" x="-.004" y="10.83"/><use xlink:href="#2"/><use xlink:href="#3" y="2.171"/><use xlink:href="#4" y="4.342"/><use xlink:href="#7" y="6.513"/><use xlink:href="#9" y="8.684"/></svg><svg x="4606"><use xlink:href="#a"/><use xlink:href="#b" x="-.004" y="13.001"/><use xlink:href="#2"/><use xlink:href="#3" y="2.171"/><use xlink:href="#4" y="4.342"/><use xlink:href="#7" y="6.513"/><use xlink:href="#9" y="8.684"/><use xlink:href="#10" y="10.855"/></svg><svg x="4700"><use xlink:href="#a"/><use xlink:href="#b" x="3.996" y="13.001"/><use xlink:href="#2"/><use xlink:href="#3" y="2.171"/><use xlink:href="#4" y="4.342"/><use xlink:href="#7" y="6.513"/><use xlink:href="#9" y="8.684"/><use xlink:href="#10" y="10.855"/><use xlink:href="#5" y="13.026"/></svg><svg x="4794"><use xlink:href="#a"/><use xlink:href="#b" x="4.996" y="13.001"/><use xlink:href="#2"/><use xlink:href="#3" y="2.171"/><use xlink:href="#4" y="4.342"/><use xlink:href="#7" y="6.513"/><use xlink:href="#9" y="8.684"/><use xlink:href="#10" y="10.855"/><text y="14.696" class="f">&gt;&gt;&gt;</text><text x="4.008" y="14.696" class="f">s</text></svg><svg x="4888"><use xlink:href="#a"/><use xlink:href="#b" x="5.996" y="13.001"/><use xlink:href="#2"/><use xlink:href="#3" y="2.171"/><use xlink:href="#4" y="4.342"/><use xlink:href="#7" y="6.513"/><use xlink:href="#9" y="8.684"/><use xlink:href="#10" y="10.855"/><text y="14.696" class="f">&gt;&gt;&gt;</text><text x="4.008" y="14.696" class="f">sy</text></svg><svg x="4982"><use xlink:href="#a"/><use xlink:href="#b" x="6.996" y="13.001"/><use xlink:href="#2"/><use xlink:href="#3" y="2.171"/><use xlink:href="#4" y="4.342"/><use xlink:href="#7" y="6.513"/><use xlink:href="#9" y="8.684"/><use xlink:href="#10" y="10.855"/><text y="14.696" class="f">&gt;&gt;&gt;</text><text x="4.008" y="14.696" class="f">sys</text></svg><svg x="5076"><use xlink:href="#a"/><use xlink:href="#b" x="7.996" y="13.001"/><use xlink:href="#2"/><use xlink:href="#3" y="2.171"/><use xlink:href="#4" y="4.342"/><use xlink:href="#7" y="6.513"/><use xlink:href="#9" y="8.684"/><use xlink:href="#10" y="10.855"/><text y="14.696" class="f">&gt;&gt;&gt;</text><text x="4.008" y="14.696" class="f">sys.</text></svg><svg x="5170"><use xlink:href="#a"/><use xlink:href="#b" x="8.996" y="13.001"/><use xlink:href="#2"/><use xlink:href="#3" y="2.171"/><use xlink:href="#4" y="4.342"/><use xlink:href="#7" y="6.513"/><use xlink:href="#9" y="8.684"/><use xlink:href="#10" y="10.855"/><text y="14.696" class="f">&gt;&gt;&gt;</text><text x="4.008" y="14.696" class="f">sys.e</text></svg><svg x="5264"><use xlink:href="#a"/><use xlink:href="#b" x="9.996" y="13.001"/><use xlink:href="#2"/><use xlink:href="#3" y="2.171"/><use xlink:href="#4" y="4.342"/><use xlink:href="#7" y="6.513"/><use xlink:href="#9" y="8.684"/><use xlink:href="#10" y="10.855"/><text y="14.696" class="f">&gt;&gt;&gt;</text><text x="4.008" y="14.696" class="f">sys.ex</text></svg><svg x="5358"><use xlink:href="#a"/><use xlink:href="#b" x="10.996" y="13.001"/><use xlink:href="#2"/><use xlink:href="#3" y="2.171"/><use xlink:href="#4" y="4.342"/><use xlink:href="#7" y="6.513"/><use xlink:href="#9" y="8.684"/><use xlink:href="#10" y="10.855"/><text y="14.696" class="f">&gt;&gt;&gt;</text><text x="4.008" y="14.696" class="f">sys.exi</text></svg><svg x="5452"><use xlink:href="#a"/><use xlink:href="#b" x="11.996" y="13.001"/><use xlink:href="#2"/><use xlink:href="#3" y="2.171"/><use xlink:href="#4" y="4.342"/><use xlink:href="#7" y="6.513"/><use xlink:href="#9" y="8.684"/><use xlink:href="#10" y="10.855"/><text y="14.696" class="f">&gt;&gt;&gt;</text><text x="4.008" y="14.696" class="f">sys.exit</text></svg><svg x="5546"><use xlink:href="#a"/><use xlink:href="#b" x="12.996" y="13.001"/><use xlink:href="#2"/><use xlink:href="#3" y="2.171"/><use xlink:href="#4" y="4.342"/><use xlink:href="#7" y="6.513"/><use xlink:href="#9" y="8.684"/><use xlink:href="#10" y="10.855"/><text y="14.696" class="f">&gt;&gt;&gt;</text><text x="4.008" y="14.696" class="f">sys.exit(</text></svg><svg x="5640"><use xlink:href="#a"/><use xlink:href="#b" x="13.996" y="13.001"/><use xlink:href="#2"/><use xlink:href="#3" y="2.171"/><use xlink:href="#4" y="4.342"/><use xlink:href="#7" y="6.513"/><use xlink:href="#9" y="8.684"/><use xlink:href="#10" y="10.855"/><use xlink:href="#11" y="13.026"/></svg><svg x="5734"><use xlink:href="#a"/><use xlink:href="#b" x="-.004" y="15.172"/><use xlink:href="#2"/><use xlink:href="#3" y="2.171"/><use xlink:href="#4" y="4.342"/><use xlink:href="#7" y="6.513"/><use xlink:href="#9" y="8.684"/><use xlink:href="#10" y="10.855"/><use xlink:href="#11" y="13.026"/></svg><svg x="5828"><use xlink:href="#a"/><use xlink:href="#b" x="-.004" y="15.172"/><use xlink:href="#2"/><use xlink:href="#3" y="2.171"/><use xlink:href="#4" y="4.342"/><use xlink:href="#7" y="6.513"/><use xlink:href="#9" y="8.684"/><use xlink:href="#10" y="10.855"/><use xlink:href="#11" y="13.026"/></svg><svg x="5922"><use xlink:href="#a"/><use xlink:href="#b" x="-.004" y="15.172"/><use xlink:href="#2"/><use xlink:href="#3" y="2.171"/><use xlink:href="#4" y="4.342"/><use xlink:href="#7" y="6.513"/><use xlink:href="#9" y="8.684"/><use xlink:href="#10" y="10.855"/><use xlink:href="#11" y="13.026"/></svg><svg x="6016"><use xlink:href="#a"/><use xlink:href="#b" x="1.996" y="15.172"/><use xlink:href="#2"/><use xlink:href="#3" y="2.171"/><use xlink:href="#4" y="4.342"/><use xlink:href="#7" y="6.513"/><use xlink:href="#9" y="8.684"/><use xlink:href="#10" y="10.855"/><use xlink:href="#11" y="13.026"/><use xlink:href="#1" y="15.197"/></svg><svg x="6110"><use xlink:href="#a"/><use xlink:href="#b" x="1.996" y="15.172"/><use xlink:href="#2"/><use xlink:href="#3" y="2.171"/><use xlink:href="#4" y="4.342"/><use xlink:href="#7" y="6.513"/><use xlink:href="#9" y="8.684"/><use xlink:href="#10" y="10.855"/><use xlink:href="#11" y="13.026"/><use xlink:href="#1" y="15.197"/></svg><svg x="6204"><use xlink:href="#a"/><use xlink:href="#b" x="1.996" y="15.172"/><use xlink:href="#2"/><use xlink:href="#3" y="2.171"/><use xlink:href="#4" y="4.342"/><use xlink:href="#7" y="6.513"/><use xlink:href="#9" y="8.684"/><use xlink:href="#10" y="10.855"/><use xlink:href="#11" y="13.026"/><use xlink:href="#1" y="15.197"/></svg><svg x="6298"><use xlink:href="#a"/><use xlink:href="#b" x="-.004" y="17.343"/><use xlink:href="#2"/><use xlink:href="#3" y="2.171"/><use xlink:href="#4" y="4.342"/><use xlink:href="#7" y="6.513"/><use xlink:href="#9" y="8.684"/><use xlink:href="#10" y="10.855"/><use xlink:href="#11" y="13.026"/><use xlink:href="#1" y="15.197"/></svg></svg></g></g></svg></svg>